D:\school\WTK\thesis\model\3dpredictsim\Results\batch_windlass\Pog_s1_tmt_aCst_d00_k1000_WL20_ig24_pas_GRF.mot
nRows=20
nColumns=19

name D:\school\WTK\thesis\model\3dpredictsim\Results\batch_windlass\Pog_s1_tmt_aCst_d00_k1000_WL20_ig24_pas_GRF.mot
datacolumns 19
datarows 20
range 0.0000000000 0.2044814479
endheader
time 	ground_force_vx	ground_force_vy	ground_force_vz	ground_force_px	ground_force_py	ground_force_pz	1_ground_force_vx	1_ground_force_vy	1_ground_force_vz	1_ground_force_px	1_ground_force_py	1_ground_force_pz	ground_torque_x	ground_torque_y	ground_torque_z	1_ground_torque_x	1_ground_torque_y	1_ground_torque_z
        0.0000000000	      -74.9212746428	       54.8438987610	       20.8926282030	        0.1380552663	        0.0000000000	        0.0434378918	       92.7434397695	      465.7078322032	       -1.3938032380	       -0.3236487868	        0.0000000000	       -0.0332140854	        0.0000000000	        0.0000000000	        0.0000000000	        0.0000000000	        0.0000000000	        0.0000000000	
        0.0107621815	     -120.0818810137	      110.4986662303	       45.2641551440	        0.1491559027	        0.0000000000	        0.0411102382	       73.9894023765	      375.6764309745	       -5.8225638308	       -0.3187791895	        0.0000000000	       -0.0313337526	        0.0000000000	        0.0000000000	        0.0000000000	        0.0000000000	        0.0000000000	        0.0000000000	
        0.0215243629	     -103.2711154320	      220.5335104198	       68.6339397770	        0.1583180323	        0.0000000000	        0.0402880457	       42.6188030780	      274.0932402542	      -15.1567265642	       -0.3107875222	        0.0000000000	       -0.0277556251	        0.0000000000	        0.0000000000	        0.0000000000	        0.0000000000	        0.0000000000	        0.0000000000	
        0.0322865444	      -54.6470997651	      447.5208412411	       12.4259276625	        0.1694750498	        0.0000000000	        0.0413421883	       16.0609905062	      179.6863372642	      -15.6814005724	       -0.2972882702	        0.0000000000	       -0.0204687803	        0.0000000000	        0.0000000000	        0.0000000000	        0.0000000000	        0.0000000000	        0.0000000000	
        0.0430487259	      -67.0787976913	      664.4844427611	      -10.1688420990	        0.1772465397	        0.0000000000	        0.0430515345	       -0.3868817155	      140.5586000642	      -13.3908359330	       -0.2928626025	        0.0000000000	       -0.0174174609	        0.0000000000	        0.0000000000	        0.0000000000	        0.0000000000	        0.0000000000	        0.0000000000	
        0.0538109073	      -97.4294890468	      816.3645937754	      -16.4993574977	        0.1838254693	        0.0000000000	        0.0440455056	       -4.4821122110	      102.9601154726	      -10.5994460809	       -0.2925464071	        0.0000000000	       -0.0172842913	        0.0000000000	        0.0000000000	        0.0000000000	        0.0000000000	        0.0000000000	        0.0000000000	
        0.0645730888	     -115.4683373596	      908.0638700090	      -16.8265224566	        0.1904259727	        0.0000000000	        0.0440710434	      -12.6569497133	       58.0546485555	       -7.4911655773	       -0.2929088374	        0.0000000000	       -0.0172105936	        0.0000000000	        0.0000000000	        0.0000000000	        0.0000000000	        0.0000000000	        0.0000000000	
        0.0753352703	     -120.9282928387	      941.5316184299	      -17.2341931715	        0.1982007040	        0.0000000000	        0.0435672566	       -7.6810536076	        9.7966713487	       -1.1234576630	        0.0000000000	        0.0000000000	        0.0000000000	        0.0000000000	        0.0000000000	        0.0000000000	        0.0000000000	        0.0000000000	        0.0000000000	
        0.0860974517	     -111.9774240507	      913.3344364285	      -16.0424018833	        0.2033540182	        0.0000000000	        0.0430232449	        0.0031404672	       -0.0028287667	       -0.0001241095	        0.0000000000	        0.0000000000	        0.0000000000	        0.0000000000	        0.0000000000	        0.0000000000	        0.0000000000	        0.0000000000	        0.0000000000	
        0.0968596332	      -94.6385472122	      852.5808454490	      -15.9998869156	        0.2067292715	        0.0000000000	        0.0426504651	        0.0000861060	       -0.0000658203	       -0.0000060085	        0.0000000000	        0.0000000000	        0.0000000000	        0.0000000000	        0.0000000000	        0.0000000000	        0.0000000000	        0.0000000000	        0.0000000000	
        0.1076218147	      -78.7912717024	      789.3948316149	      -15.8640714091	        0.2098320479	        0.0000000000	        0.0424248960	        0.0001223463	       -0.0000832653	       -0.0000093416	        0.0000000000	        0.0000000000	        0.0000000000	        0.0000000000	        0.0000000000	        0.0000000000	        0.0000000000	        0.0000000000	        0.0000000000	
        0.1183839961	      -65.8635805600	      736.6972788649	      -16.1787900024	        0.2129820106	        0.0000000000	        0.0422953770	        0.0020146573	       -0.0012549482	       -0.0001618627	        0.0000000000	        0.0000000000	        0.0000000000	        0.0000000000	        0.0000000000	        0.0000000000	        0.0000000000	        0.0000000000	        0.0000000000	
        0.1291461776	      -54.8513913163	      695.1419716332	      -16.9078656187	        0.2163020018	        0.0000000000	        0.0422297657	       -0.0030973971	        0.0017950206	        0.0002589870	        0.0000000000	        0.0000000000	        0.0000000000	        0.0000000000	        0.0000000000	        0.0000000000	        0.0000000000	        0.0000000000	        0.0000000000	
        0.1399083591	      -45.1222837606	      662.1227853842	      -17.8093752204	        0.2199900867	        0.0000000000	        0.0422067287	       -0.0385355847	        0.0210063219	        0.0033549162	        0.0000000000	        0.0000000000	        0.0000000000	        0.0000000000	        0.0000000000	        0.0000000000	        0.0000000000	        0.0000000000	        0.0000000000	
        0.1506705405	      -36.7438814775	      636.3356482439	      -19.1311978893	        0.2244532938	        0.0000000000	        0.0421806845	       -0.0250038004	        0.0129124633	        0.0022701117	        0.0000000000	        0.0000000000	        0.0000000000	        0.0000000000	        0.0000000000	        0.0000000000	        0.0000000000	        0.0000000000	        0.0000000000	
        0.1614327220	      -30.8895436182	      616.9907766618	      -20.1949170347	        0.2295953189	        0.0000000000	        0.0421206218	       -0.0168196451	        0.0082757667	        0.0015940298	        0.0000000000	        0.0000000000	        0.0000000000	        0.0000000000	        0.0000000000	        0.0000000000	        0.0000000000	        0.0000000000	        0.0000000000	
        0.1721949035	      -26.7125183929	      603.0662458926	      -20.5493968961	        0.2349436088	        0.0000000000	        0.0420317529	       -0.0140627638	        0.0066276822	        0.0013833135	        0.0000000000	        0.0000000000	        0.0000000000	        0.0000000000	        0.0000000000	        0.0000000000	        0.0000000000	        0.0000000000	        0.0000000000	
        0.1829570849	      -22.9646281882	      593.6644011783	      -20.7456205707	        0.2405811557	        0.0000000000	        0.0419041208	       -0.0151894179	        0.0068920098	        0.0015332143	        0.0000000000	        0.0000000000	        0.0000000000	        0.0000000000	        0.0000000000	        0.0000000000	        0.0000000000	        0.0000000000	        0.0000000000	
        0.1937192664	      -20.2938862087	      587.1478402644	      -20.5421129619	        0.2463607437	        0.0000000000	        0.0417363244	       -0.0207569586	        0.0091101570	        0.0021230884	        0.0000000000	        0.0000000000	        0.0000000000	        0.0000000000	        0.0000000000	        0.0000000000	        0.0000000000	        0.0000000000	        0.0000000000	
        0.2044814479	      -18.9977321675	      583.3363299395	      -19.9411877099	        0.2520674001	        0.0000000000	        0.0415440027	       -0.0341382284	        0.0145554742	        0.0035050404	        0.0000000000	        0.0000000000	        0.0000000000	        0.0000000000	        0.0000000000	        0.0000000000	        0.0000000000	        0.0000000000	        0.0000000000	
